<mxfile modified="2023-05-31T21:16:11.136Z" host="Electron" agent="Mozilla/5.0 (Macintosh; Intel Mac OS X 10_15_7) AppleWebKit/537.36 (KHTML, like Gecko) draw.io/21.1.2 Chrome/106.0.5249.199 Electron/21.4.3 Safari/537.36" etag="Vk8Lt9HzJeOGNVKoH_kB" version="21.1.2" type="device">
  <diagram id="Ht1M8jgEwFfnCIfOTk4-" name="Page-1">
    <mxGraphModel dx="1316" dy="801" grid="1" gridSize="10" guides="1" tooltips="1" connect="1" arrows="1" fold="1" page="1" pageScale="1" pageWidth="1169" pageHeight="827" math="0" shadow="0">
      <root>
        <mxCell id="0" />
        <mxCell id="1" parent="0" />
        <mxCell id="i_2gOcyAo-XeP83Zc-X9-8" value="" style="verticalLabelPosition=bottom;verticalAlign=top;html=1;shape=mxgraph.basic.rect;fillColor2=none;strokeWidth=1;size=20;indent=5;" parent="1" vertex="1">
          <mxGeometry x="100" y="190" width="90" height="270" as="geometry" />
        </mxCell>
        <mxCell id="UEzPUAAOIrF-is8g5C7q-88" value="" style="edgeStyle=orthogonalEdgeStyle;rounded=0;orthogonalLoop=1;jettySize=auto;html=1;endArrow=open;endFill=0;strokeWidth=2;" parent="1" source="SOLaATFvumEIcmYHhmR9-1" edge="1">
          <mxGeometry relative="1" as="geometry">
            <mxPoint x="64.99" y="254" as="sourcePoint" />
            <mxPoint x="106.9982725615316" y="335.0344827586207" as="targetPoint" />
          </mxGeometry>
        </mxCell>
        <mxCell id="SOLaATFvumEIcmYHhmR9-1" value="File" style="aspect=fixed;html=1;points=[];align=center;image;fontSize=12;image=img/lib/azure2/general/File.svg;" parent="1" vertex="1">
          <mxGeometry x="11.99" y="300.5" width="56.00000000000001" height="69" as="geometry" />
        </mxCell>
        <mxCell id="UEzPUAAOIrF-is8g5C7q-77" value="" style="outlineConnect=0;fontColor=#232F3E;gradientColor=none;fillColor=#277116;strokeColor=none;dashed=0;verticalLabelPosition=bottom;verticalAlign=top;align=center;html=1;fontSize=12;fontStyle=0;aspect=fixed;pointerEvents=1;shape=mxgraph.aws4.bucket_with_objects;labelBackgroundColor=#ffffff;" parent="1" vertex="1">
          <mxGeometry x="107" y="210" width="75" height="78" as="geometry" />
        </mxCell>
        <mxCell id="SOLaATFvumEIcmYHhmR9-33" value="" style="endArrow=classic;html=1;rounded=0;fontSize=12;dashed=1;" parent="1" edge="1">
          <mxGeometry width="50" height="50" relative="1" as="geometry">
            <mxPoint x="845.9999999999998" y="360.5016949152541" as="sourcePoint" />
            <mxPoint x="1015" y="361" as="targetPoint" />
          </mxGeometry>
        </mxCell>
        <mxCell id="SOLaATFvumEIcmYHhmR9-35" value="Scan file" style="edgeLabel;html=1;align=center;verticalAlign=middle;resizable=0;points=[];fontSize=12;" parent="SOLaATFvumEIcmYHhmR9-33" vertex="1" connectable="0">
          <mxGeometry x="-0.0043" relative="1" as="geometry">
            <mxPoint as="offset" />
          </mxGeometry>
        </mxCell>
        <mxCell id="SOLaATFvumEIcmYHhmR9-34" value="" style="endArrow=classic;html=1;rounded=0;fontSize=12;dashed=1;" parent="1" edge="1">
          <mxGeometry width="50" height="50" relative="1" as="geometry">
            <mxPoint x="1005" y="381" as="sourcePoint" />
            <mxPoint x="846" y="380.84477611940304" as="targetPoint" />
          </mxGeometry>
        </mxCell>
        <mxCell id="SOLaATFvumEIcmYHhmR9-36" value="Scan results" style="edgeLabel;html=1;align=center;verticalAlign=middle;resizable=0;points=[];fontSize=12;" parent="SOLaATFvumEIcmYHhmR9-34" vertex="1" connectable="0">
          <mxGeometry x="0.0129" relative="1" as="geometry">
            <mxPoint as="offset" />
          </mxGeometry>
        </mxCell>
        <mxCell id="SOLaATFvumEIcmYHhmR9-37" value="" style="rounded=0;whiteSpace=wrap;html=1;labelBackgroundColor=none;fontSize=12;fillColor=#E6E6E6;fontColor=#333333;strokeColor=none;" parent="1" vertex="1">
          <mxGeometry x="1025" y="301" width="130" height="100" as="geometry" />
        </mxCell>
        <mxCell id="SOLaATFvumEIcmYHhmR9-38" value="" style="endArrow=classic;html=1;rounded=0;fontSize=12;dashed=1;" parent="1" edge="1">
          <mxGeometry width="50" height="50" relative="1" as="geometry">
            <mxPoint x="1034.5" y="361" as="sourcePoint" />
            <mxPoint x="1074.5" y="361" as="targetPoint" />
          </mxGeometry>
        </mxCell>
        <mxCell id="SOLaATFvumEIcmYHhmR9-40" value="" style="endArrow=classic;html=1;rounded=0;fontSize=12;dashed=1;" parent="1" edge="1">
          <mxGeometry width="50" height="50" relative="1" as="geometry">
            <mxPoint x="1074.5" y="381" as="sourcePoint" />
            <mxPoint x="1045" y="381" as="targetPoint" />
          </mxGeometry>
        </mxCell>
        <mxCell id="SOLaATFvumEIcmYHhmR9-42" value="&lt;h6&gt;&lt;font style=&quot;font-size: 12px;&quot;&gt;Trend Micro domain&lt;/font&gt;&lt;/h6&gt;" style="text;html=1;strokeColor=none;fillColor=none;align=left;verticalAlign=middle;whiteSpace=wrap;rounded=0;labelBackgroundColor=none;fontSize=24;" parent="1" vertex="1">
          <mxGeometry x="1029.75" y="301" width="120.5" height="30" as="geometry" />
        </mxCell>
        <mxCell id="SOLaATFvumEIcmYHhmR9-43" value="&lt;font style=&quot;font-size: 10px;&quot;&gt;Trend Micro Global Smart Protection Server&lt;/font&gt;" style="rounded=0;whiteSpace=wrap;html=1;labelBackgroundColor=none;fontSize=12;fillColor=#6d8764;strokeColor=none;fontColor=#ffffff;align=center;" parent="1" vertex="1">
          <mxGeometry x="1030.25" y="331" width="120" height="60" as="geometry" />
        </mxCell>
        <mxCell id="qXlvel-bi4WhbtgMyOii-1" value="Bucket AWS Account - us-east-1" style="points=[[0,0],[0.25,0],[0.5,0],[0.75,0],[1,0],[1,0.25],[1,0.5],[1,0.75],[1,1],[0.75,1],[0.5,1],[0.25,1],[0,1],[0,0.75],[0,0.5],[0,0.25]];outlineConnect=0;gradientColor=none;html=1;whiteSpace=wrap;fontSize=12;fontStyle=0;shape=mxgraph.aws4.group;grIcon=mxgraph.aws4.group_aws_cloud_alt;strokeColor=#232F3E;fillColor=none;verticalAlign=top;align=left;spacingLeft=30;fontColor=#232F3E;dashed=0;labelBackgroundColor=#ffffff;container=1;pointerEvents=0;collapsible=0;recursiveResize=0;opacity=40;" parent="1" vertex="1">
          <mxGeometry x="85" y="70" width="785" height="530" as="geometry" />
        </mxCell>
        <mxCell id="qXlvel-bi4WhbtgMyOii-2" value="" style="rounded=0;whiteSpace=wrap;html=1;labelBackgroundColor=none;fillColor=#dae8fc;dashed=1;container=1;pointerEvents=0;collapsible=0;recursiveResize=0;strokeColor=none;" parent="qXlvel-bi4WhbtgMyOii-1" vertex="1">
          <mxGeometry x="270" y="75" width="490" height="450" as="geometry" />
        </mxCell>
        <mxCell id="qXlvel-bi4WhbtgMyOii-3" style="edgeStyle=orthogonalEdgeStyle;rounded=0;orthogonalLoop=1;jettySize=auto;html=1;" parent="qXlvel-bi4WhbtgMyOii-2" source="qXlvel-bi4WhbtgMyOii-5" target="qXlvel-bi4WhbtgMyOii-6" edge="1">
          <mxGeometry relative="1" as="geometry" />
        </mxCell>
        <mxCell id="qXlvel-bi4WhbtgMyOii-5" value="SQS" style="outlineConnect=0;fontColor=#232F3E;gradientColor=#F34482;gradientDirection=north;fillColor=#BC1356;strokeColor=#ffffff;dashed=0;verticalLabelPosition=bottom;verticalAlign=top;align=center;html=1;fontSize=12;fontStyle=0;aspect=fixed;shape=mxgraph.aws4.resourceIcon;resIcon=mxgraph.aws4.sqs;labelBackgroundColor=#ffffff;" parent="qXlvel-bi4WhbtgMyOii-2" vertex="1">
          <mxGeometry x="244" y="101" width="78" height="78" as="geometry" />
        </mxCell>
        <mxCell id="qXlvel-bi4WhbtgMyOii-6" value="ScannerLambda" style="outlineConnect=0;fontColor=#232F3E;gradientColor=#F78E04;gradientDirection=north;fillColor=#D05C17;strokeColor=#ffffff;dashed=0;verticalLabelPosition=bottom;verticalAlign=top;align=center;html=1;fontSize=12;fontStyle=0;aspect=fixed;shape=mxgraph.aws4.resourceIcon;resIcon=mxgraph.aws4.lambda;labelBackgroundColor=#ffffff;spacingTop=6;" parent="qXlvel-bi4WhbtgMyOii-2" vertex="1">
          <mxGeometry x="245" y="286" width="77" height="77" as="geometry" />
        </mxCell>
        <mxCell id="qXlvel-bi4WhbtgMyOii-8" value="&lt;h4&gt;AMaaS Stack&lt;/h4&gt;" style="text;html=1;strokeColor=none;fillColor=none;align=left;verticalAlign=middle;whiteSpace=wrap;rounded=0;labelBackgroundColor=none;fontSize=24;" parent="qXlvel-bi4WhbtgMyOii-2" vertex="1">
          <mxGeometry x="5" y="5" width="240" height="30" as="geometry" />
        </mxCell>
        <mxCell id="qXlvel-bi4WhbtgMyOii-9" value="SNS Topic" style="outlineConnect=0;fontColor=#232F3E;gradientColor=#F34482;gradientDirection=north;fillColor=#BC1356;strokeColor=#ffffff;dashed=0;verticalLabelPosition=bottom;verticalAlign=top;align=center;html=1;fontSize=12;fontStyle=0;aspect=fixed;shape=mxgraph.aws4.resourceIcon;resIcon=mxgraph.aws4.sns;labelBackgroundColor=#ffffff;" parent="qXlvel-bi4WhbtgMyOii-2" vertex="1">
          <mxGeometry x="45" y="285" width="78" height="78" as="geometry" />
        </mxCell>
        <mxCell id="qXlvel-bi4WhbtgMyOii-11" style="edgeStyle=orthogonalEdgeStyle;rounded=0;orthogonalLoop=1;jettySize=auto;html=1;" parent="qXlvel-bi4WhbtgMyOii-2" source="qXlvel-bi4WhbtgMyOii-6" target="qXlvel-bi4WhbtgMyOii-9" edge="1">
          <mxGeometry relative="1" as="geometry">
            <mxPoint x="215" y="378" as="sourcePoint" />
            <mxPoint x="215" y="501" as="targetPoint" />
          </mxGeometry>
        </mxCell>
        <mxCell id="qXlvel-bi4WhbtgMyOii-12" value="Scan results" style="edgeLabel;html=1;align=center;verticalAlign=middle;resizable=0;points=[];" parent="qXlvel-bi4WhbtgMyOii-11" vertex="1" connectable="0">
          <mxGeometry x="-0.1566" y="3" relative="1" as="geometry">
            <mxPoint as="offset" />
          </mxGeometry>
        </mxCell>
        <mxCell id="qXlvel-bi4WhbtgMyOii-14" value="" style="sketch=0;points=[[0,0,0],[0.25,0,0],[0.5,0,0],[0.75,0,0],[1,0,0],[0,1,0],[0.25,1,0],[0.5,1,0],[0.75,1,0],[1,1,0],[0,0.25,0],[0,0.5,0],[0,0.75,0],[1,0.25,0],[1,0.5,0],[1,0.75,0]];outlineConnect=0;fontColor=#232F3E;gradientColor=#FF4F8B;gradientDirection=north;fillColor=#BC1356;strokeColor=#ffffff;dashed=0;verticalLabelPosition=bottom;verticalAlign=top;align=center;html=1;fontSize=12;fontStyle=0;aspect=fixed;shape=mxgraph.aws4.resourceIcon;resIcon=mxgraph.aws4.eventbridge;" parent="qXlvel-bi4WhbtgMyOii-2" vertex="1">
          <mxGeometry x="47.5" y="106" width="73" height="73" as="geometry" />
        </mxCell>
        <mxCell id="qXlvel-bi4WhbtgMyOii-15" style="edgeStyle=orthogonalEdgeStyle;rounded=0;orthogonalLoop=1;jettySize=auto;html=1;" parent="qXlvel-bi4WhbtgMyOii-2" source="qXlvel-bi4WhbtgMyOii-14" target="qXlvel-bi4WhbtgMyOii-5" edge="1">
          <mxGeometry relative="1" as="geometry">
            <mxPoint x="202" y="153.49411764705883" as="sourcePoint" />
            <mxPoint x="135" y="144" as="targetPoint" />
            <Array as="points">
              <mxPoint x="135" y="145" />
              <mxPoint x="135" y="145" />
            </Array>
          </mxGeometry>
        </mxCell>
        <mxCell id="9Sry7bMXCBuVQDnMyCVN-1" value="s3ObjectCreated" style="edgeLabel;html=1;align=center;verticalAlign=middle;resizable=0;points=[];" parent="qXlvel-bi4WhbtgMyOii-15" vertex="1" connectable="0">
          <mxGeometry x="-0.1289" y="-2" relative="1" as="geometry">
            <mxPoint as="offset" />
          </mxGeometry>
        </mxCell>
        <mxCell id="qXlvel-bi4WhbtgMyOii-16" value="&lt;span style=&quot;color: rgb(35, 47, 62); font-family: Helvetica; font-size: 12px; font-style: normal; font-variant-ligatures: normal; font-variant-caps: normal; font-weight: 400; letter-spacing: normal; orphans: 2; text-align: center; text-indent: 0px; text-transform: none; widows: 2; word-spacing: 0px; -webkit-text-stroke-width: 0px; background-color: rgb(255, 255, 255); text-decoration-thickness: initial; text-decoration-style: initial; text-decoration-color: initial; float: none; display: inline !important;&quot;&gt;EventBridge&lt;/span&gt;" style="text;whiteSpace=wrap;html=1;fontSize=9;" parent="qXlvel-bi4WhbtgMyOii-2" vertex="1">
          <mxGeometry x="47.5" y="177" width="70" height="23" as="geometry" />
        </mxCell>
        <mxCell id="9Sry7bMXCBuVQDnMyCVN-2" value="Secret Manager" style="sketch=0;points=[[0,0,0],[0.25,0,0],[0.5,0,0],[0.75,0,0],[1,0,0],[0,1,0],[0.25,1,0],[0.5,1,0],[0.75,1,0],[1,1,0],[0,0.25,0],[0,0.5,0],[0,0.75,0],[1,0.25,0],[1,0.5,0],[1,0.75,0]];outlineConnect=0;fontColor=#232F3E;gradientColor=#F54749;gradientDirection=north;fillColor=#C7131F;strokeColor=#ffffff;dashed=0;verticalLabelPosition=bottom;verticalAlign=top;align=center;html=1;fontSize=12;fontStyle=0;aspect=fixed;shape=mxgraph.aws4.resourceIcon;resIcon=mxgraph.aws4.secrets_manager;" parent="qXlvel-bi4WhbtgMyOii-2" vertex="1">
          <mxGeometry x="375" y="298" width="53" height="53" as="geometry" />
        </mxCell>
        <mxCell id="9Sry7bMXCBuVQDnMyCVN-3" style="edgeStyle=orthogonalEdgeStyle;rounded=0;orthogonalLoop=1;jettySize=auto;html=1;entryX=0;entryY=0.5;entryDx=0;entryDy=0;entryPerimeter=0;" parent="qXlvel-bi4WhbtgMyOii-2" source="qXlvel-bi4WhbtgMyOii-6" target="9Sry7bMXCBuVQDnMyCVN-2" edge="1">
          <mxGeometry relative="1" as="geometry">
            <mxPoint x="293" y="189" as="sourcePoint" />
            <mxPoint x="294" y="296" as="targetPoint" />
            <Array as="points">
              <mxPoint x="354" y="325" />
              <mxPoint x="375" y="325" />
            </Array>
          </mxGeometry>
        </mxCell>
        <mxCell id="ka8CWH6AFe9dk7vhZ9aJ-1" value="DLQ" style="outlineConnect=0;fontColor=#232F3E;gradientColor=#F34482;gradientDirection=north;fillColor=#BC1356;strokeColor=#ffffff;dashed=0;verticalLabelPosition=bottom;verticalAlign=top;align=center;html=1;fontSize=12;fontStyle=0;aspect=fixed;shape=mxgraph.aws4.resourceIcon;resIcon=mxgraph.aws4.sqs;labelBackgroundColor=#ffffff;" vertex="1" parent="qXlvel-bi4WhbtgMyOii-2">
          <mxGeometry x="375" y="60" width="53" height="53" as="geometry" />
        </mxCell>
        <mxCell id="ka8CWH6AFe9dk7vhZ9aJ-4" style="edgeStyle=orthogonalEdgeStyle;rounded=0;orthogonalLoop=1;jettySize=auto;html=1;" edge="1" parent="qXlvel-bi4WhbtgMyOii-2" source="qXlvel-bi4WhbtgMyOii-5" target="ka8CWH6AFe9dk7vhZ9aJ-1">
          <mxGeometry relative="1" as="geometry">
            <mxPoint x="293" y="189" as="sourcePoint" />
            <mxPoint x="294" y="296" as="targetPoint" />
          </mxGeometry>
        </mxCell>
        <mxCell id="i_2gOcyAo-XeP83Zc-X9-2" value="" style="outlineConnect=0;fontColor=#232F3E;gradientColor=none;fillColor=#277116;strokeColor=none;dashed=0;verticalLabelPosition=bottom;verticalAlign=top;align=center;html=1;fontSize=12;fontStyle=0;aspect=fixed;pointerEvents=1;shape=mxgraph.aws4.bucket_with_objects;labelBackgroundColor=#ffffff;" parent="qXlvel-bi4WhbtgMyOii-1" vertex="1">
          <mxGeometry x="25" y="220" width="75" height="78" as="geometry" />
        </mxCell>
        <mxCell id="i_2gOcyAo-XeP83Zc-X9-3" value="" style="outlineConnect=0;fontColor=#232F3E;gradientColor=none;fillColor=#277116;strokeColor=none;dashed=0;verticalLabelPosition=bottom;verticalAlign=top;align=center;html=1;fontSize=12;fontStyle=0;aspect=fixed;pointerEvents=1;shape=mxgraph.aws4.bucket_with_objects;labelBackgroundColor=#ffffff;" parent="qXlvel-bi4WhbtgMyOii-1" vertex="1">
          <mxGeometry x="25" y="298" width="75" height="78" as="geometry" />
        </mxCell>
        <mxCell id="i_2gOcyAo-XeP83Zc-X9-9" style="edgeStyle=orthogonalEdgeStyle;rounded=0;orthogonalLoop=1;jettySize=auto;html=1;entryX=0;entryY=0.5;entryDx=0;entryDy=0;entryPerimeter=0;exitX=1.002;exitY=0.514;exitDx=0;exitDy=0;exitPerimeter=0;" parent="1" source="i_2gOcyAo-XeP83Zc-X9-8" target="qXlvel-bi4WhbtgMyOii-14" edge="1">
          <mxGeometry relative="1" as="geometry">
            <mxPoint x="466.5" y="490" as="sourcePoint" />
            <mxPoint x="158" y="460" as="targetPoint" />
            <Array as="points">
              <mxPoint x="190" y="320" />
              <mxPoint x="250" y="320" />
              <mxPoint x="250" y="288" />
              <mxPoint x="402" y="288" />
            </Array>
          </mxGeometry>
        </mxCell>
      </root>
    </mxGraphModel>
  </diagram>
</mxfile>
